<?xml version="1.0" encoding="utf-8"?>
<!-- Generator: Adobe Illustrator 21.0.0, SVG Export Plug-In . SVG Version: 6.00 Build 0)  -->
<svg version="1.1" id="Слой_1" xmlns="http://www.w3.org/2000/svg" xmlns:xlink="http://www.w3.org/1999/xlink" x="0px" y="0px"
	 viewBox="0 0 229.5 67" style="enable-background:new 0 0 229.5 67;" xml:space="preserve">
<style type="text/css">
	.st0{enable-background:new    ;}
</style>
<g class="st0">
	<path d="M45.1,12.7l0,53.5c-0.3-0.4-1.1-1.2-2.2-2.3c-1.1-1.1-2.5-2.5-4.1-4c-1.6-1.6-3.4-3.3-5.4-5.2c-2-1.9-4-3.8-6.1-5.7
		c-2.1-1.9-4.1-3.8-6-5.7c-2-1.9-3.7-3.6-5.4-5.1c-1.6-1.6-3-2.9-4.1-4c-1.1-1.1-1.8-1.9-2.1-2.3c0-0.1-0.2-0.3-0.6-0.7
		c-0.3-0.4-0.6-0.8-0.8-1.1l0.2,2.2l0,31.6l-8.5,0l0-53.4c0.3,0.4,1.1,1.2,2.2,2.3c1.1,1.1,2.5,2.4,4.1,4c1.6,1.5,3.4,3.2,5.4,5
		c2,1.8,4,3.7,6.1,5.6s4.1,3.8,6,5.6c2,1.8,3.8,3.5,5.4,5c1.6,1.5,3,2.8,4.1,3.9c1.1,1.1,1.8,1.8,2.1,2.2l1.3,2l-0.2-2.4l0-30.9
		L45.1,12.7z"/>
	<path d="M53.5,38.3c0-3.6,0.7-6.9,2.1-10.1c1.4-3.2,3.2-6,5.6-8.4c2.4-2.4,5.1-4.3,8.3-5.7c3.2-1.4,6.5-2.1,10.1-2.1
		c3.5,0,6.9,0.7,10.1,2.1c3.2,1.4,6,3.3,8.3,5.7c2.4,2.4,4.3,5.2,5.6,8.3c1.4,3.2,2.1,6.5,2.1,10.1c0,3.6-0.7,7-2.1,10.1
		c-1.4,3.2-3.3,5.9-5.6,8.3c-2.4,2.4-5.2,4.2-8.3,5.6s-6.5,2-10.1,2c-3.6,0-7-0.7-10.1-2c-3.2-1.4-5.9-3.2-8.3-5.6
		c-2.4-2.4-4.2-5.1-5.6-8.3C54.2,45.3,53.5,41.9,53.5,38.3z M62.2,38.3c0,2.5,0.5,4.8,1.4,7c0.9,2.2,2.2,4.1,3.8,5.7
		c1.6,1.6,3.5,2.9,5.6,3.8c2.1,0.9,4.4,1.4,6.9,1.4c2.4,0,4.6-0.5,6.8-1.4c2.1-0.9,4-2.2,5.5-3.8c1.6-1.6,2.8-3.5,3.7-5.7
		c0.9-2.2,1.4-4.5,1.4-7c0-2.5-0.5-4.8-1.4-7c-0.9-2.2-2.2-4.1-3.8-5.7c-1.6-1.6-3.4-2.9-5.6-3.8c-2.1-0.9-4.4-1.4-6.8-1.4
		c-2.4,0-4.7,0.5-6.8,1.4c-2.1,0.9-4,2.2-5.5,3.9c-1.6,1.6-2.8,3.5-3.7,5.7C62.6,33.5,62.2,35.8,62.2,38.3z"/>
	<path d="M114.1,63.7l0-51.1l33.9,0l0,7.8l-25.4,0l0,13.7l22.6,0l0,8l-22.6,0l0,13.6l26.3,0l0,8L114.1,63.7z M127.1,9.7
		c1.1-1.5,2.1-3.1,3.2-4.7c1.1-1.6,2.1-3.2,3.2-4.8l7.2,0c-1.4,1.6-2.8,3.2-4.3,4.8c-1.4,1.6-2.9,3.2-4.3,4.7L127.1,9.7z"/>
	<path d="M157.5,10.3c0.2,0.3,0.7,1.1,1.5,2.2c0.8,1.1,1.8,2.5,3,4.2c1.2,1.7,2.5,3.5,4,5.5s3,4.1,4.5,6.1c1.5,2.1,3,4.1,4.4,6.1
		s2.8,3.8,3.9,5.4c1.2,1.6,2.2,3,3,4.1c0.8,1.1,1.3,1.8,1.5,2.1c0.1-0.1,0.5-0.7,1.3-1.8c0.7-1.1,1.7-2.4,2.8-4
		c1.1-1.6,2.4-3.4,3.9-5.4s2.9-4.1,4.5-6.2c1.5-2.1,3-4.2,4.5-6.2c1.5-2.1,2.8-3.9,4.1-5.6c1.2-1.7,2.3-3.1,3.1-4.3
		c0.8-1.2,1.4-1.9,1.6-2.2l0,53.4l-9.2,0l0-26.1c0-0.4,0-0.8,0.1-1.2c0.1-0.4,0.1-0.7,0.1-0.8l-16.9,24.4c-0.2-0.3-0.8-1.1-1.7-2.3
		s-2-2.8-3.3-4.5c-1.3-1.7-2.6-3.6-4-5.6c-1.4-2-2.7-3.8-4-5.5c-1.2-1.7-2.3-3.2-3.2-4.3c-0.9-1.2-1.3-1.9-1.4-2.1
		c0,0.1,0,0.4,0.1,0.8s0.1,0.8,0.1,1.2l0,26.1l-8.6,0L157.5,10.3z"/>
	<path d="M220.9,12.4l8.6,0l0,51.1l-8.6,0L220.9,12.4z"/>
</g>
</svg>
